# xmcd
#
# Track frame offsets: 
#        150
#        13301
#        25561
#        39022
#        48958
#        60654
#        70874
#        84123
#        98159
#        110527
#
# Disc length: 1591 seconds
#
# Revision: 0
# Processed by: cddbd v1.4PL0 Copyright (c) Steve Scherf et al.
# Submitted via: ExactAudioCopy v0.90b2
#
DISCID=6d06350a
DTITLE=Lynn Anderson - Greatest Hits (Front Row Entertainment)
DYEAR=1900
DGENRE=Country
TTITLE0=Rose Garden
TTITLE1=How Can I Unlove You
TTITLE2=Keep Me In Mind
TTITLE3=What A Man, My Man Is
TTITLE4=You're My Man
TTITLE5=Fool Me
TTITLE6=Top Of The World
TTITLE7=Cry
TTITLE8=Listen To A Country Song
TTITLE9=Ride, Ride, Ride
EXTD=
EXTT0=
EXTT1=
EXTT2=
EXTT3=
EXTT4=
EXTT5=
EXTT6=
EXTT7=
EXTT8=
EXTT9=
PLAYORDER=
